<svg xmlns="http://www.w3.org/2000/svg" width="1024" height="1024" viewBox="0 0 1024 1024">
<g>
<path d="M 293.20 725.89 C287.04,727.18 227.80,727.24 221.34,725.96 C212.20,724.15 204.56,718.02 201.87,710.34 C199.78,704.40 200.26,691.59 202.83,684.50 C205.78,676.38 213.31,665.59 219.39,660.78 C225.69,655.81 234.09,651.54 241.83,649.39 L 247.82 647.72 L 248.43 640.11 C249.32,629.09 250.83,587.17 251.59,552.50 C252.15,527.22 251.98,520.06 250.49,507.00 C247.97,484.94 249.24,460.81 254.20,436.83 L 255.37 431.15 L 251.88 427.29 C241.95,416.29 231.62,394.99 229.35,380.81 C229.01,378.67 228.45,377.08 228.12,377.26 C223.06,380.05 216.47,382.44 211.48,383.30 C198.49,385.52 185.02,379.38 175.76,367.00 C164.08,351.38 142.94,299.58 139.98,279.29 C137.30,260.96 144.60,243.79 159.78,232.67 C162.38,230.77 171.70,225.30 180.50,220.51 C189.30,215.72 201.57,208.36 207.76,204.15 C234.01,186.31 239.10,184.00 252.24,184.00 C259.08,184.00 261.54,184.52 269.12,187.55 L 277.99 191.10 L 284.77 187.13 C297.36,179.78 312.04,174.07 330.00,169.53 C372.21,158.88 418.00,164.71 459.34,186.02 L 468.67 190.82 L 474.96 187.70 C480.32,185.05 482.65,184.52 490.53,184.18 C503.92,183.59 511.12,186.21 530.14,198.59 C535.56,202.12 540.42,205.00 540.96,205.00 C541.49,205.00 542.47,203.99 543.12,202.75 C545.89,197.53 559.57,181.71 570.17,171.49 C583.77,158.36 595.70,149.71 610.26,142.38 C683.73,105.44 772.98,134.81 811.17,208.50 C814.02,214.00 817.97,223.23 819.94,229.00 L 823.54 239.50 L 833.46 241.23 C845.40,243.32 851.25,245.16 860.50,249.76 C889.99,264.40 910.50,294.36 915.44,330.00 L 916.06 334.50 L 923.37 337.25 C933.23,340.95 941.94,346.76 951.33,355.89 C977.00,380.83 987.52,419.05 978.50,454.60 C969.53,489.95 944.05,518.40 911.97,528.88 C895.52,534.26 894.90,534.30 828.50,534.67 C794.40,534.86 766.33,535.12 766.13,535.26 C765.93,535.39 766.70,538.51 767.83,542.20 C778.11,575.47 772.93,612.64 753.93,642.00 C732.77,674.69 698.32,696.81 657.72,703.78 L 647.94 705.46 L 645.63 710.48 C642.21,717.92 636.75,722.70 629.00,725.06 C622.64,727.00 619.62,727.04 487.00,726.77 L 351.50 726.50 L 346.51 724.20 C337.12,719.87 333.00,713.73 332.22,702.86 C331.25,689.24 336.51,676.60 348.00,665.01 C352.12,660.85 356.77,656.55 358.31,655.47 C360.66,653.82 361.22,652.58 361.69,647.87 L 362.26 642.24 L 358.38 640.98 C356.24,640.29 352.92,638.95 351.00,637.99 C343.44,634.24 343.28,634.29 342.00,640.71 C340.22,649.62 334.19,672.37 330.80,682.97 C322.66,708.44 310.55,722.26 293.20,725.89 ZM 635.33 509.06 L 638.50 511.94 L 667.25 511.97 C695.05,512.00 696.00,511.94 696.00,510.06 C696.00,508.99 695.49,507.80 694.87,507.42 C694.15,506.97 693.93,504.70 694.26,501.02 C695.29,489.70 701.07,484.29 711.00,485.36 C717.07,486.01 727.31,489.45 727.83,491.00 C728.02,491.55 728.80,492.00 729.58,492.00 C730.36,492.00 731.00,492.45 731.00,493.00 C731.00,493.55 731.69,494.00 732.53,494.00 C733.37,494.00 734.32,494.67 734.64,495.50 C734.95,496.33 735.74,497.00 736.39,497.00 C737.03,497.00 740.46,499.92 744.00,503.50 C747.54,507.08 750.01,510.01 749.47,510.02 C748.94,510.02 749.17,510.47 750.00,511.00 C750.93,511.60 777.45,511.98 819.85,511.98 C879.23,512.00 888.93,511.79 893.85,510.41 C902.97,507.86 914.46,503.84 915.00,503.02 C915.28,502.61 917.47,501.20 919.89,499.88 C922.30,498.57 925.02,497.05 925.93,496.50 C926.84,495.95 931.39,491.63 936.04,486.90 C944.78,478.00 950.18,470.17 952.65,462.77 C953.43,460.42 954.36,457.83 954.70,457.00 C959.80,444.95 960.16,421.11 955.51,404.50 C953.84,398.55 947.26,384.81 945.77,384.17 C945.35,383.98 945.00,383.18 945.00,382.39 C945.00,381.59 944.33,380.68 943.50,380.36 C942.67,380.05 942.00,379.43 942.00,378.99 C942.00,378.55 939.08,375.26 935.50,371.69 C931.92,368.11 929.00,365.44 929.00,365.75 C929.00,366.05 928.10,365.27 927.00,364.00 C925.90,362.73 924.99,362.10 924.97,362.60 C924.95,363.09 924.39,362.78 923.72,361.90 C923.05,361.02 922.05,360.22 921.50,360.11 C919.52,359.74 913.00,356.60 913.00,356.02 C913.00,355.69 911.99,355.35 910.76,355.26 C909.54,355.16 908.38,354.64 908.20,354.10 C908.02,353.56 907.22,353.36 906.44,353.66 C905.65,353.97 905.00,353.83 905.00,353.36 C905.00,352.89 903.60,352.45 901.89,352.39 C900.19,352.33 898.39,351.65 897.91,350.89 C897.43,350.12 897.02,349.87 897.02,350.32 C897.01,350.77 896.33,350.47 895.50,349.64 C894.51,348.65 894.00,346.16 894.00,342.28 C894.00,336.12 890.64,317.74 888.97,314.76 C888.44,313.81 888.00,312.46 887.99,311.76 C887.97,309.67 883.25,300.19 881.05,297.83 C879.92,296.61 879.00,295.03 879.00,294.31 C879.00,293.59 878.54,293.00 877.97,293.00 C877.40,293.00 876.68,292.33 876.37,291.52 C875.61,289.55 862.22,276.00 861.03,276.00 C860.52,276.00 859.64,275.21 859.08,274.25 C858.52,273.29 858.05,272.84 858.03,273.26 C858.01,273.68 856.31,272.96 854.25,271.66 C852.19,270.36 849.49,268.97 848.25,268.58 C847.01,268.19 846.00,267.54 846.00,267.15 C846.00,266.75 845.21,266.36 844.25,266.27 C843.29,266.18 839.35,265.21 835.50,264.11 C831.65,263.01 827.04,262.09 825.25,262.06 C823.46,262.03 822.00,261.51 822.00,260.92 C822.00,260.23 820.87,260.09 818.91,260.52 C817.21,260.89 813.91,260.91 811.57,260.56 C807.99,260.03 807.01,259.34 805.28,256.21 C804.16,254.17 802.93,250.37 802.56,247.77 C802.19,245.17 801.46,242.78 800.94,242.46 C800.42,242.14 800.00,240.96 800.00,239.84 C800.00,238.72 799.28,236.16 798.40,234.15 C797.52,232.14 796.45,229.60 796.04,228.50 C792.66,219.62 783.39,203.00 781.80,203.00 C781.36,203.00 781.00,202.43 781.00,201.72 C781.00,201.02 780.21,199.73 779.25,198.86 C778.29,197.99 776.38,195.78 775.00,193.96 C770.34,187.79 763.73,181.00 762.39,181.00 C761.66,181.00 760.07,179.67 758.87,178.04 C757.67,176.41 756.33,175.30 755.89,175.57 C755.46,175.84 754.61,175.13 754.00,174.00 C753.39,172.87 752.47,172.21 751.94,172.54 C751.42,172.86 750.72,172.43 750.39,171.57 C750.06,170.71 749.38,170.26 748.89,170.57 C748.39,170.88 747.72,170.43 747.39,169.57 C747.06,168.71 746.43,168.23 746.00,168.50 C745.57,168.77 744.94,168.29 744.61,167.43 C744.28,166.57 743.63,166.11 743.16,166.40 C742.69,166.69 741.43,166.16 740.36,165.22 C739.30,164.27 737.76,163.35 736.96,163.18 C736.16,163.00 735.35,162.43 735.16,161.92 C734.98,161.41 734.42,161.24 733.91,161.55 C733.41,161.86 733.00,161.64 733.00,161.06 C733.00,160.48 732.66,160.05 732.25,160.12 C730.19,160.44 728.01,159.87 726.82,158.68 C726.09,157.95 725.05,157.31 724.50,157.26 C721.54,156.98 712.00,153.55 712.00,152.77 C712.00,152.27 711.10,152.15 710.00,152.50 C708.90,152.85 708.00,152.77 708.00,152.32 C708.00,151.87 706.99,151.45 705.75,151.38 C700.28,151.09 691.00,149.66 691.00,149.11 C691.00,147.91 665.32,149.07 656.00,150.69 C650.78,151.59 645.71,152.29 644.75,152.23 C643.79,152.17 643.00,152.51 643.00,152.98 C643.00,153.92 637.26,155.52 635.25,155.14 C634.56,155.02 634.00,155.41 634.00,156.02 C634.00,156.62 633.55,156.84 632.99,156.50 C632.44,156.15 631.28,156.58 630.41,157.45 C629.55,158.31 628.44,158.77 627.96,158.47 C626.82,157.77 616.75,162.83 615.70,164.63 C615.26,165.38 614.27,166.00 613.50,166.00 C612.73,166.00 610.98,167.04 609.61,168.31 C608.24,169.58 605.40,171.50 603.31,172.56 C601.21,173.63 599.14,175.06 598.70,175.75 C598.26,176.44 597.43,177.00 596.84,177.00 C596.26,177.00 594.90,178.12 593.82,179.50 C592.74,180.88 591.52,182.00 591.12,182.00 C590.11,182.00 572.25,199.92 572.76,200.42 C572.98,200.64 571.79,201.84 570.12,203.07 C568.45,204.31 567.29,205.66 567.55,206.08 C567.81,206.50 566.91,207.72 565.54,208.79 C564.18,209.86 563.32,210.98 563.62,211.29 C563.92,211.59 563.25,212.33 562.12,212.93 C559.34,214.42 560.42,216.65 564.59,218.03 C566.46,218.65 568.00,219.56 568.00,220.06 C568.00,220.56 569.12,221.24 570.50,221.59 C571.88,221.93 573.00,222.57 573.00,223.00 C573.00,223.43 574.12,224.07 575.50,224.41 C576.88,224.76 578.00,225.48 578.00,226.02 C578.00,226.56 578.67,227.00 579.50,227.00 C580.33,227.00 581.00,227.45 581.00,228.00 C581.00,228.55 581.69,229.00 582.53,229.00 C583.37,229.00 584.32,229.68 584.64,230.50 C584.95,231.32 585.75,232.00 586.40,232.00 C587.96,232.00 596.22,240.44 595.44,241.23 C595.10,241.56 595.78,242.35 596.94,242.97 C598.10,243.59 598.82,244.48 598.53,244.95 C598.25,245.41 598.71,246.06 599.57,246.39 C600.43,246.72 600.85,247.44 600.50,247.99 C600.16,248.55 600.39,249.00 601.00,249.00 C601.61,249.00 601.84,249.45 601.50,250.00 C601.16,250.55 601.30,251.00 601.82,251.00 C603.13,251.00 605.34,256.65 604.54,257.94 C604.18,258.52 604.41,259.00 605.05,259.00 C605.69,259.00 605.95,259.67 605.64,260.50 C605.32,261.33 605.41,262.00 605.84,262.00 C606.82,262.00 606.60,280.21 605.55,285.25 C605.13,287.31 604.35,289.00 603.83,289.00 C603.31,289.00 603.13,289.40 603.44,289.90 C604.15,291.05 600.96,301.00 599.88,301.00 C599.43,301.00 599.32,301.67 599.64,302.50 C599.95,303.33 599.73,304.00 599.14,304.00 C598.55,304.00 598.30,304.62 598.59,305.37 C598.88,306.13 598.49,307.37 597.73,308.13 C596.96,308.89 596.51,310.02 596.71,310.64 C596.92,311.26 596.42,312.44 595.59,313.26 C594.77,314.09 594.37,315.04 594.71,315.38 C595.05,315.72 594.78,316.00 594.11,316.00 C593.43,316.00 593.14,316.42 593.45,316.93 C594.17,318.08 592.00,323.00 590.78,323.00 C590.29,323.00 590.14,323.42 590.45,323.93 C591.17,325.08 589.00,330.00 587.78,330.00 C587.29,330.00 587.16,330.45 587.50,331.00 C587.84,331.55 587.61,332.00 587.00,332.00 C586.39,332.00 586.16,332.45 586.50,333.00 C586.84,333.55 586.61,334.00 586.00,334.00 C585.39,334.00 585.16,334.45 585.50,335.00 C585.84,335.55 585.61,336.00 585.00,336.00 C584.39,336.00 584.14,336.41 584.45,336.92 C584.76,337.43 584.36,338.50 583.56,339.30 C582.75,340.10 582.37,341.04 582.71,341.38 C583.05,341.72 582.78,342.00 582.11,342.00 C581.43,342.00 581.16,342.45 581.50,343.00 C581.84,343.55 581.61,344.00 581.00,344.00 C580.39,344.00 580.16,344.45 580.50,345.00 C580.84,345.55 580.61,346.00 580.00,346.00 C579.39,346.00 579.16,346.45 579.50,347.00 C579.84,347.55 579.61,348.00 579.00,348.00 C578.39,348.00 578.16,348.45 578.50,349.00 C578.84,349.55 578.61,350.00 578.00,350.00 C577.39,350.00 577.16,350.45 577.50,351.00 C577.84,351.55 577.57,352.00 576.89,352.00 C576.22,352.00 575.95,352.28 576.29,352.63 C577.14,353.47 574.21,359.00 572.92,359.00 C572.35,359.00 572.16,359.45 572.50,360.01 C572.85,360.56 572.43,361.28 571.57,361.61 C570.71,361.94 570.24,362.58 570.53,363.04 C570.81,363.50 570.25,364.34 569.27,364.91 C568.30,365.48 567.93,365.95 568.46,365.97 C569.91,366.02 559.78,376.00 558.29,376.00 C557.58,376.00 557.00,376.44 557.00,376.97 C557.00,378.19 551.47,381.13 550.67,380.34 C550.36,380.02 549.37,380.49 548.48,381.38 C547.43,382.43 546.00,382.79 544.43,382.39 C542.95,382.02 542.00,382.22 542.00,382.89 C542.00,383.54 540.11,384.00 537.44,384.00 C532.11,384.00 524.00,382.14 524.00,380.91 C524.00,380.45 523.33,380.32 522.50,380.64 C521.67,380.95 521.00,380.79 521.00,380.27 C521.00,379.76 520.33,379.33 519.50,379.33 C518.67,379.33 518.00,379.93 518.00,380.67 C518.00,381.40 517.64,382.00 517.20,382.00 C516.76,382.00 516.35,383.63 516.29,385.63 C516.24,387.63 515.81,389.54 515.35,389.88 C514.88,390.22 514.47,390.95 514.44,391.50 C514.41,392.05 514.03,393.73 513.59,395.23 C512.94,397.47 513.37,398.67 515.98,401.98 C517.73,404.19 519.76,406.00 520.48,406.00 C521.20,406.00 523.18,407.58 524.87,409.50 C526.56,411.42 528.38,413.00 528.93,413.00 C529.47,413.00 531.17,414.57 532.71,416.50 C534.24,418.42 536.06,420.00 536.74,420.00 C537.42,420.00 538.55,420.90 539.23,422.00 C539.92,423.10 541.00,424.00 541.63,424.00 C542.26,424.00 543.51,425.12 544.41,426.50 C545.31,427.88 546.69,429.00 547.49,429.00 C548.28,429.00 549.41,429.90 550.00,431.00 C550.59,432.10 551.70,433.00 552.46,433.00 C553.23,433.00 554.74,434.12 555.82,435.50 C556.90,436.88 558.28,438.00 558.89,438.00 C559.49,438.00 560.55,438.90 561.23,440.00 C561.92,441.10 563.03,442.00 563.71,442.00 C564.39,442.00 565.94,443.35 567.16,445.00 C568.38,446.65 569.96,448.00 570.66,448.00 C571.37,448.00 572.69,449.12 573.59,450.50 C574.49,451.88 575.80,453.00 576.50,453.00 C577.20,453.00 578.51,454.12 579.41,455.50 C580.31,456.88 581.68,458.00 582.45,458.00 C583.22,458.00 584.74,459.12 585.82,460.50 C586.90,461.88 588.25,463.00 588.82,463.00 C589.38,463.00 591.38,464.80 593.27,467.00 C595.15,469.20 597.19,471.00 597.80,471.00 C598.41,471.00 600.35,472.80 602.12,475.00 C603.89,477.20 605.83,479.00 606.44,479.00 C607.91,479.00 626.23,497.44 625.49,498.18 C625.17,498.50 626.75,500.22 629.00,502.00 C631.25,503.78 632.88,505.45 632.63,505.71 C632.37,505.96 633.59,507.47 635.33,509.06 ZM 352.94 702.89 C353.85,704.59 355.01,705.00 358.90,705.00 L 363.73 705.00 L 364.34 700.51 C365.10,694.97 369.19,686.68 372.20,684.57 C378.16,680.40 380.74,684.11 379.07,694.46 C377.47,704.36 377.92,705.16 384.85,704.80 L 390.46 704.50 L 392.27 697.50 C394.71,688.12 398.11,683.00 401.89,683.00 C406.37,683.00 407.40,685.07 406.51,692.27 C406.08,695.70 405.68,699.85 405.62,701.50 L 405.50 704.50 L 412.00 704.82 C420.09,705.21 425.01,703.81 429.58,699.80 C433.96,695.95 435.92,692.15 439.81,679.95 C446.60,658.69 453.10,628.70 460.59,584.00 C466.32,549.84 467.02,546.74 469.67,543.81 C471.56,541.72 477.65,541.41 480.09,543.28 C484.94,547.01 484.97,549.56 480.54,581.00 C474.78,621.95 468.46,656.28 463.60,673.05 L 461.30 681.00 L 473.81 681.00 L 477.01 675.33 C481.14,668.00 489.05,660.20 496.00,656.60 L 501.51 653.74 L 498.27 647.12 C493.45,637.29 491.92,630.09 491.85,617.00 C491.75,598.28 495.88,583.70 505.37,569.31 C521.37,545.01 545.60,529.74 571.76,527.46 C581.23,526.63 593.80,528.35 596.15,530.79 C599.06,533.82 599.27,536.58 596.79,539.41 C594.79,541.68 593.34,542.13 585.46,542.92 C569.54,544.53 559.78,547.78 548.19,555.35 C538.44,561.71 533.01,566.89 526.99,575.61 C507.93,603.19 508.65,639.53 528.53,653.17 C532.01,655.55 536.47,657.18 553.50,662.30 C557.01,663.35 557.50,663.87 557.50,666.50 L 557.50 669.50 L 551.50 669.28 C548.20,669.16 538.30,668.95 529.50,668.80 C514.73,668.57 513.05,668.73 507.64,670.89 C501.64,673.28 494.00,679.79 494.00,682.50 C494.00,683.33 493.56,684.00 493.03,684.00 C491.58,684.00 487.81,697.32 488.18,701.16 C488.50,704.47 488.56,704.50 494.04,704.79 L 499.58 705.09 L 500.80 699.29 C503.09,688.43 509.53,680.71 513.54,684.03 C515.00,685.25 515.17,686.59 514.64,692.98 C514.30,697.12 513.74,701.51 513.40,702.75 C512.79,704.93 512.99,705.00 519.75,705.00 L 526.73 705.00 L 527.36 700.41 C528.06,695.31 531.21,687.53 533.69,684.79 C535.95,682.30 539.65,682.54 541.46,685.30 C542.78,687.32 542.80,688.57 541.58,695.55 C540.82,699.92 540.40,703.84 540.66,704.25 C540.91,704.66 559.25,705.00 581.41,705.00 L 621.71 705.00 L 624.31 702.59 C626.16,700.87 627.10,698.73 627.58,695.11 C628.13,690.99 629.37,688.57 634.18,682.27 C656.70,652.76 662.57,611.50 649.44,575.00 C636.87,540.03 610.51,510.06 541.50,452.30 C531.60,444.01 518.63,432.87 512.68,427.53 L 501.86 417.83 L 498.18 422.11 C484.82,437.64 475.50,445.46 460.38,453.81 C447.64,460.85 432.16,465.94 418.52,467.57 C413.01,468.23 412.21,468.66 408.20,473.13 C398.73,483.66 380.73,488.78 364.18,485.66 C353.15,483.57 346.15,480.22 339.22,473.71 C333.52,468.37 333.45,468.34 323.00,466.56 C306.43,463.74 291.05,458.11 278.84,450.40 C276.78,449.10 274.90,448.37 274.66,448.77 C273.05,451.49 271.78,473.02 272.30,488.74 C273.31,519.31 279.95,541.36 295.11,564.50 C302.97,576.48 322.92,595.97 336.50,604.91 C346.07,611.21 365.80,621.68 366.45,620.81 C366.58,620.64 367.48,607.90 368.45,592.50 C370.34,562.69 371.24,558.12 375.60,556.14 C379.48,554.37 381.78,554.77 384.91,557.76 L 387.80 560.52 L 387.93 574.51 C388.20,602.80 383.53,659.01 380.54,663.58 C379.67,664.91 376.38,667.30 373.23,668.91 C370.08,670.51 365.61,673.45 363.29,675.45 C356.01,681.74 350.06,697.51 352.94,702.89 ZM 315.13 442.41 C325.98,446.04 326.30,445.97 325.62,440.25 C325.30,437.64 324.77,432.56 324.43,428.98 L 323.82 422.45 L 317.31 418.98 C309.02,414.55 302.85,407.93 298.46,398.78 C294.08,389.64 293.74,383.17 297.45,379.45 C302.09,374.82 307.32,377.42 310.35,385.86 C314.64,397.79 322.92,403.97 335.69,404.79 C351.24,405.79 362.91,396.39 362.98,382.83 C363.00,378.36 362.86,378.13 359.75,377.47 C354.71,376.39 346.16,372.08 342.24,368.64 C337.83,364.77 334.02,356.82 334.01,351.46 C333.99,342.42 341.31,334.13 352.58,330.44 C357.43,328.85 361.30,328.51 374.00,328.53 C387.87,328.56 390.12,328.81 395.38,330.90 C406.72,335.41 412.95,344.07 411.65,353.50 C410.85,359.41 407.88,365.08 403.79,368.53 C399.86,371.85 389.82,376.75 385.16,377.63 L 381.81 378.26 L 382.50 382.88 C383.90,392.28 387.89,398.24 395.50,402.33 C398.69,404.04 401.23,404.48 408.00,404.49 C415.57,404.50 417.09,404.17 421.86,401.53 C428.50,397.85 432.20,393.45 434.92,385.99 C437.24,379.63 438.22,378.48 442.21,377.48 C444.31,376.96 445.46,377.37 447.45,379.36 C449.61,381.51 450.00,382.82 450.00,387.79 C450.00,398.98 440.13,413.03 427.71,419.52 C422.73,422.12 422.00,422.88 421.96,425.50 C421.94,427.15 421.35,431.76 420.65,435.75 C419.95,439.73 419.67,443.47 420.04,444.06 C421.71,446.76 447.25,436.74 458.61,428.92 C465.72,424.03 477.78,412.21 481.99,406.00 C495.99,385.37 500.40,361.20 496.43,327.00 C494.44,309.87 491.02,292.47 485.97,273.85 C483.79,265.80 482.00,258.06 482.00,256.66 C482.00,249.55 492.03,245.86 497.46,250.97 C502.99,256.16 512.83,293.59 518.89,332.46 C522.02,352.59 522.76,354.51 528.99,358.75 C532.85,361.37 538.74,361.71 542.94,359.53 C544.49,358.73 547.55,356.05 549.72,353.58 C556.88,345.45 571.43,314.71 579.62,290.44 C584.24,276.74 584.83,266.00 581.33,259.50 C577.13,251.72 569.88,246.23 550.00,235.78 C534.37,227.56 524.21,221.56 512.82,213.83 C497.73,203.57 492.32,203.07 478.26,210.59 C473.73,213.02 469.20,215.00 468.20,215.00 C467.19,215.00 459.37,211.44 450.80,207.09 C434.26,198.68 416.66,192.36 401.50,189.37 C387.59,186.63 353.12,186.90 339.25,189.85 C320.31,193.89 305.18,199.71 287.73,209.66 C276.84,215.87 274.61,216.09 268.65,211.55 C263.65,207.73 258.61,206.00 252.50,206.00 C245.84,206.00 240.24,208.57 228.50,217.03 C217.63,224.86 207.20,231.25 190.00,240.61 C172.53,250.11 166.00,255.90 163.58,264.03 C161.30,271.71 161.58,275.38 165.47,288.75 C172.93,314.44 188.15,347.79 196.17,356.06 C205.54,365.71 217.95,361.92 222.45,348.03 C223.26,345.54 225.07,336.52 226.47,328.00 C230.77,301.78 240.66,263.49 245.64,253.77 C249.95,245.33 263.00,247.64 263.00,256.84 C263.00,258.76 261.66,265.32 260.02,271.42 C250.47,306.99 246.25,342.09 248.96,363.56 C253.98,403.50 275.54,429.19 315.13,442.41 ZM 783.00 465.64 C783.00,466.42 680.63,466.93 676.68,466.18 C675.76,466.00 675.00,465.41 675.00,464.87 C675.00,464.33 674.55,464.16 674.00,464.50 C673.45,464.84 673.00,464.61 673.00,464.00 C673.00,463.39 672.55,463.16 672.00,463.50 C671.45,463.84 671.00,463.61 671.00,463.00 C671.00,462.39 670.59,462.14 670.08,462.45 C668.61,463.36 663.27,456.14 661.57,450.92 C660.27,446.94 660.00,440.24 660.00,411.56 L 660.00 377.00 L 646.25 376.98 C628.68,376.94 624.79,376.05 619.80,370.92 C613.65,364.58 612.50,359.29 615.75,352.30 C618.01,347.42 619.65,345.41 630.49,334.13 C635.45,328.98 642.65,321.39 646.50,317.27 C650.35,313.14 655.86,307.39 658.75,304.47 C661.64,301.56 664.00,298.89 664.00,298.54 C664.00,298.19 667.94,293.87 672.75,288.94 C677.56,284.01 685.55,275.62 690.50,270.31 C698.43,261.79 706.61,253.15 715.15,244.26 C719.19,240.04 720.82,238.91 724.29,237.92 C728.54,236.70 735.73,236.75 736.50,238.00 C736.84,238.55 737.73,239.00 738.48,239.00 C739.98,239.00 758.50,256.48 758.50,257.89 C758.50,258.37 761.75,261.77 765.73,265.45 C769.70,269.13 772.85,272.48 772.73,272.90 C772.60,273.32 775.09,276.03 778.25,278.93 C781.41,281.83 783.80,284.51 783.56,284.90 C783.32,285.29 786.70,288.88 791.07,292.88 C795.45,296.88 798.82,300.49 798.56,300.90 C798.31,301.30 801.45,304.67 805.54,308.37 C809.62,312.07 812.86,315.42 812.73,315.81 C812.61,316.20 815.98,319.83 820.24,323.88 C824.49,327.92 827.78,331.55 827.54,331.94 C827.30,332.33 830.23,335.47 834.06,338.91 C837.88,342.35 840.78,345.55 840.49,346.02 C840.20,346.48 840.97,347.57 842.21,348.43 C843.44,349.29 844.03,350.00 843.53,350.00 C843.03,350.00 843.45,350.61 844.46,351.35 C845.48,352.09 845.99,353.21 845.59,353.85 C845.20,354.48 845.42,355.00 846.07,355.00 C847.62,355.00 846.72,365.26 845.12,365.79 C844.50,366.00 844.24,366.59 844.56,367.09 C844.87,367.60 844.43,368.28 843.57,368.61 C842.71,368.94 842.26,369.62 842.57,370.11 C842.88,370.61 842.31,371.31 841.31,371.68 C840.32,372.05 839.15,372.93 838.72,373.64 C837.27,376.03 830.55,376.99 815.18,376.99 L 799.85 377.00 L 800.01 412.75 C800.02,416.31 800.04,419.55 800.05,422.49 C800.18,449.70 800.19,451.79 799.15,452.80 C798.95,452.99 798.71,453.15 798.43,453.43 C797.56,454.29 797.15,455.00 797.51,455.00 C797.87,455.00 796.13,457.02 793.66,459.50 C791.18,461.98 788.45,464.00 787.58,464.00 C786.71,464.00 786.00,464.44 786.00,464.97 C786.00,465.50 785.33,465.68 784.50,465.36 C783.67,465.05 783.00,465.17 783.00,465.64 ZM 685.65 441.17 C687.21,442.89 689.93,443.00 730.50,443.00 C770.51,443.00 773.81,442.87 775.29,441.23 C776.68,439.70 776.93,434.64 777.19,401.98 C777.48,366.97 777.63,364.25 779.47,360.67 C782.37,355.04 785.77,354.00 801.25,354.00 L 814.25 354.00 L 810.09 349.25 C807.80,346.64 802.29,340.67 797.84,336.00 C793.40,331.33 787.45,324.92 784.63,321.76 C781.81,318.61 776.58,312.94 773.00,309.16 C769.42,305.39 763.58,299.04 760.00,295.07 C744.34,277.64 731.85,265.00 730.29,265.00 C728.75,265.00 716.42,275.99 716.73,277.08 C716.86,277.53 713.62,280.93 709.54,284.63 C705.45,288.33 702.31,291.69 702.56,292.09 C702.80,292.49 699.29,296.28 694.75,300.51 C690.21,304.75 686.60,308.57 686.72,309.01 C686.84,309.45 682.70,313.75 677.51,318.57 C672.32,323.38 668.29,327.66 668.54,328.07 C668.80,328.48 665.29,332.28 660.75,336.51 C656.21,340.75 652.59,344.55 652.70,344.96 C652.81,345.38 651.58,346.99 649.95,348.55 C648.33,350.10 647.00,351.74 647.00,352.19 C647.00,352.63 652.48,353.00 659.18,353.00 C669.54,353.00 672.02,353.32 675.74,355.11 C680.30,357.32 683.63,361.17 682.53,362.96 C682.17,363.53 682.36,364.00 682.94,364.00 C683.67,364.00 684.00,375.82 684.00,401.67 C684.00,435.32 684.18,439.54 685.65,441.17 ZM 222.25 704.36 C222.94,704.65 225.49,704.80 227.93,704.69 L 232.35 704.50 L 233.47 699.00 C234.77,692.64 236.23,689.59 239.81,685.75 C246.07,679.04 249.90,685.28 247.01,697.50 C245.45,704.11 246.26,705.14 252.77,704.80 L 258.38 704.50 L 260.02 698.00 C262.56,687.90 265.65,683.00 269.45,683.00 C270.63,683.00 272.14,683.54 272.80,684.20 C274.15,685.55 274.28,693.06 273.08,700.36 L 272.28 705.23 L 281.39 704.80 C295.01,704.16 301.28,700.20 306.40,689.00 C309.21,682.86 316.73,654.38 320.00,637.50 C321.17,631.45 322.34,625.77 322.59,624.88 C322.91,623.76 320.42,621.36 314.33,616.94 C300.41,606.82 286.68,592.46 275.29,576.08 C274.12,574.40 273.54,580.75 272.40,607.74 C270.28,658.40 270.04,661.05 267.53,663.56 C265.93,665.16 263.54,665.92 258.43,666.47 C240.16,668.43 228.05,676.46 222.89,690.04 C220.73,695.74 220.37,703.57 222.25,704.36 ZM 663.42 677.75 C661.47,680.75 662.62,680.72 672.70,677.53 C702.44,668.13 731.23,642.94 742.27,616.68 C757.15,581.26 752.07,545.68 728.48,520.20 C721.46,512.62 719.15,511.72 721.58,517.53 C724.22,523.85 726.99,537.34 727.63,547.00 C729.10,569.15 722.12,593.11 709.28,609.97 C701.31,620.45 688.65,631.82 680.77,635.57 C677.67,637.05 677.26,637.84 675.10,646.33 C672.69,655.80 666.01,673.79 663.42,677.75 ZM 678.13 599.25 C678.79,605.16 679.65,610.00 680.04,610.00 C681.13,610.00 688.18,602.07 691.88,596.67 C696.59,589.83 701.44,578.75 703.56,570.00 C705.49,562.02 706.03,547.66 704.69,539.80 L 703.89 535.10 L 679.20 534.80 C665.61,534.63 654.36,534.56 654.19,534.64 C654.02,534.72 655.43,537.19 657.31,540.14 C668.27,557.31 675.87,578.87 678.13,599.25 ZM 362.13 466.14 C368.16,468.29 383.09,468.31 385.22,466.18 C385.87,465.53 387.16,465.00 388.08,465.00 C390.49,465.00 397.90,457.48 399.68,453.23 C400.63,450.95 401.39,444.70 401.75,436.17 L 402.31 422.72 L 398.66 423.40 C396.40,423.83 395.00,423.70 395.00,423.08 C395.00,422.52 394.33,422.32 393.50,422.64 C392.67,422.95 392.00,422.73 392.00,422.14 C392.00,421.55 391.33,421.32 390.50,421.64 C389.67,421.95 389.00,421.69 389.00,421.05 C389.00,420.41 388.56,420.15 388.03,420.48 C387.50,420.81 385.73,420.39 384.11,419.55 C381.18,418.04 381.15,418.05 380.48,421.09 C380.11,422.78 380.12,427.72 380.51,432.08 C380.96,437.21 380.85,440.00 380.20,440.00 C379.64,440.00 379.42,440.87 379.70,441.94 C380.02,443.18 379.28,444.82 377.65,446.44 C373.56,450.53 371.45,449.83 368.13,443.29 C366.43,439.93 366.00,437.28 366.00,430.23 C366.00,419.41 364.90,417.20 360.46,419.16 C358.83,419.87 357.21,420.88 356.85,421.38 C356.49,421.89 354.80,422.27 353.10,422.22 C351.39,422.17 350.00,422.59 350.00,423.15 C350.00,423.73 348.84,423.90 347.25,423.55 L 344.50 422.95 L 344.78 429.73 C344.93,433.45 345.48,439.15 346.00,442.40 C346.51,445.64 346.70,448.68 346.41,449.15 C346.12,449.62 346.41,450.00 347.05,450.00 C347.69,450.00 347.95,450.67 347.64,451.50 C347.32,452.33 347.53,453.00 348.09,453.00 C348.66,453.00 348.84,453.45 348.50,454.00 C348.16,454.55 348.39,455.00 349.00,455.00 C349.61,455.00 349.87,455.40 349.56,455.90 C349.26,456.39 349.69,457.05 350.52,457.37 C351.34,457.68 351.90,458.45 351.76,459.07 C351.62,459.68 352.40,460.71 353.50,461.34 C354.60,461.98 355.78,462.89 356.13,463.36 C356.47,463.84 359.17,465.09 362.13,466.14 ZM 319.57 325.62 C313.86,328.28 309.28,328.55 303.68,326.55 C280.62,318.32 286.56,282.61 311.00,282.61 C321.07,282.61 329.28,289.11 332.61,299.72 C334.22,304.82 334.21,305.35 332.43,310.58 C329.96,317.84 325.78,322.73 319.57,325.62 ZM 439.98 327.01 C432.43,329.17 424.14,326.34 418.20,319.58 C405.92,305.59 416.36,282.61 435.00,282.61 C444.11,282.61 450.92,287.19 454.92,296.00 C459.19,305.42 456.12,317.36 448.01,322.89 C445.50,324.61 441.88,326.46 439.98,327.01 ZM 311.85 305.87 L 312.02 305.93 C313.78,306.58 314.65,306.90 315.43,306.76 C316.22,306.63 316.93,306.06 318.37,304.93 C320.29,303.41 321.00,301.94 321.00,299.45 C321.00,292.97 312.72,290.78 308.70,296.19 C306.95,298.54 306.86,299.25 307.95,301.89 C308.65,303.57 310.37,305.33 311.85,305.87 ZM 433.07 303.37 C435.79,306.82 441.17,307.03 443.44,303.78 C448.55,296.49 438.56,288.66 433.07,295.63 C431.93,297.08 431.00,298.82 431.00,299.50 C431.00,300.18 431.93,301.92 433.07,303.37 Z" fill="rgb(4,33,40)"/>
<path d="M 635.33 509.06 C633.59,507.47 632.37,505.96 632.63,505.71 C632.88,505.45 631.25,503.78 629.00,502.00 C626.75,500.22 625.17,498.50 625.49,498.18 C626.23,497.44 607.91,479.00 606.44,479.00 C605.83,479.00 603.89,477.20 602.12,475.00 C600.35,472.80 598.41,471.00 597.80,471.00 C597.19,471.00 595.15,469.20 593.27,467.00 C591.38,464.80 589.38,463.00 588.82,463.00 C588.25,463.00 586.90,461.88 585.82,460.50 C584.74,459.12 583.22,458.00 582.45,458.00 C581.68,458.00 580.31,456.88 579.41,455.50 C578.51,454.12 577.20,453.00 576.50,453.00 C575.80,453.00 574.49,451.88 573.59,450.50 C572.69,449.12 571.37,448.00 570.66,448.00 C569.96,448.00 568.38,446.65 567.16,445.00 C565.94,443.35 564.39,442.00 563.71,442.00 C563.03,442.00 561.92,441.10 561.23,440.00 C560.55,438.90 559.49,438.00 558.89,438.00 C558.28,438.00 556.90,436.88 555.82,435.50 C554.74,434.12 553.23,433.00 552.46,433.00 C551.70,433.00 550.59,432.10 550.00,431.00 C549.41,429.90 548.28,429.00 547.49,429.00 C546.69,429.00 545.31,427.88 544.41,426.50 C543.51,425.12 542.26,424.00 541.63,424.00 C541.00,424.00 539.92,423.10 539.23,422.00 C538.55,420.90 537.42,420.00 536.74,420.00 C536.06,420.00 534.24,418.42 532.71,416.50 C531.17,414.57 529.47,413.00 528.93,413.00 C528.38,413.00 526.56,411.42 524.87,409.50 C523.18,407.58 521.20,406.00 520.48,406.00 C519.76,406.00 517.73,404.19 515.98,401.98 C513.37,398.67 512.94,397.47 513.59,395.23 C514.03,393.73 514.41,392.05 514.44,391.50 C514.47,390.95 514.88,390.22 515.35,389.88 C515.81,389.54 516.24,387.63 516.29,385.63 C516.35,383.63 516.76,382.00 517.20,382.00 C517.64,382.00 518.00,381.40 518.00,380.67 C518.00,379.93 518.67,379.33 519.50,379.33 C520.33,379.33 521.00,379.76 521.00,380.27 C521.00,380.79 521.67,380.95 522.50,380.64 C523.33,380.32 524.00,380.45 524.00,380.91 C524.00,382.14 532.11,384.00 537.44,384.00 C540.11,384.00 542.00,383.54 542.00,382.89 C542.00,382.22 542.95,382.02 544.43,382.39 C546.00,382.79 547.43,382.43 548.48,381.38 C549.37,380.49 550.36,380.02 550.67,380.34 C551.47,381.13 557.00,378.19 557.00,376.97 C557.00,376.44 557.58,376.00 558.29,376.00 C559.78,376.00 569.91,366.02 568.46,365.97 C567.93,365.95 568.30,365.48 569.27,364.91 C570.25,364.34 570.81,363.50 570.53,363.04 C570.24,362.58 570.71,361.94 571.57,361.61 C572.43,361.28 572.85,360.56 572.50,360.01 C572.16,359.45 572.35,359.00 572.92,359.00 C574.21,359.00 577.14,353.47 576.29,352.63 C575.95,352.28 576.22,352.00 576.89,352.00 C577.57,352.00 577.84,351.55 577.50,351.00 C577.16,350.45 577.39,350.00 578.00,350.00 C578.61,350.00 578.84,349.55 578.50,349.00 C578.16,348.45 578.39,348.00 579.00,348.00 C579.61,348.00 579.84,347.55 579.50,347.00 C579.16,346.45 579.39,346.00 580.00,346.00 C580.61,346.00 580.84,345.55 580.50,345.00 C580.16,344.45 580.39,344.00 581.00,344.00 C581.61,344.00 581.84,343.55 581.50,343.00 C581.16,342.45 581.43,342.00 582.11,342.00 C582.78,342.00 583.05,341.72 582.71,341.38 C582.37,341.04 582.75,340.10 583.56,339.30 C584.36,338.50 584.76,337.43 584.45,336.92 C584.14,336.41 584.39,336.00 585.00,336.00 C585.61,336.00 585.84,335.55 585.50,335.00 C585.16,334.45 585.39,334.00 586.00,334.00 C586.61,334.00 586.84,333.55 586.50,333.00 C586.16,332.45 586.39,332.00 587.00,332.00 C587.61,332.00 587.84,331.55 587.50,331.00 C587.16,330.45 587.29,330.00 587.78,330.00 C589.00,330.00 591.17,325.08 590.45,323.93 C590.14,323.42 590.29,323.00 590.78,323.00 C592.00,323.00 594.17,318.08 593.45,316.93 C593.14,316.42 593.43,316.00 594.11,316.00 C594.78,316.00 595.05,315.72 594.71,315.38 C594.37,315.04 594.77,314.09 595.59,313.26 C596.42,312.44 596.92,311.26 596.71,310.64 C596.51,310.02 596.96,308.89 597.73,308.13 C598.49,307.37 598.88,306.13 598.59,305.37 C598.30,304.62 598.55,304.00 599.14,304.00 C599.73,304.00 599.95,303.33 599.64,302.50 C599.32,301.67 599.43,301.00 599.88,301.00 C600.96,301.00 604.15,291.05 603.44,289.90 C603.13,289.40 603.31,289.00 603.83,289.00 C604.35,289.00 605.13,287.31 605.55,285.25 C606.60,280.21 606.82,262.00 605.84,262.00 C605.41,262.00 605.32,261.33 605.64,260.50 C605.95,259.67 605.69,259.00 605.05,259.00 C604.41,259.00 604.18,258.52 604.54,257.94 C605.34,256.65 603.13,251.00 601.82,251.00 C601.30,251.00 601.16,250.55 601.50,250.00 C601.84,249.45 601.61,249.00 601.00,249.00 C600.39,249.00 600.16,248.55 600.50,247.99 C600.85,247.44 600.43,246.72 599.57,246.39 C598.71,246.06 598.25,245.41 598.53,244.95 C598.82,244.48 598.10,243.59 596.94,242.97 C595.78,242.35 595.10,241.56 595.44,241.23 C596.22,240.44 587.96,232.00 586.40,232.00 C585.75,232.00 584.95,231.32 584.64,230.50 C584.32,229.68 583.37,229.00 582.53,229.00 C581.69,229.00 581.00,228.55 581.00,228.00 C581.00,227.45 580.33,227.00 579.50,227.00 C578.67,227.00 578.00,226.56 578.00,226.02 C578.00,225.48 576.88,224.76 575.50,224.41 C574.12,224.07 573.00,223.43 573.00,223.00 C573.00,222.57 571.88,221.93 570.50,221.59 C569.12,221.24 568.00,220.56 568.00,220.06 C568.00,219.56 566.46,218.65 564.59,218.03 C560.42,216.65 559.34,214.42 562.12,212.93 C563.25,212.33 563.92,211.59 563.62,211.29 C563.32,210.98 564.18,209.86 565.54,208.79 C566.91,207.72 567.81,206.50 567.55,206.08 C567.29,205.66 568.45,204.31 570.12,203.07 C571.79,201.84 572.98,200.64 572.76,200.42 C572.25,199.92 590.11,182.00 591.12,182.00 C591.52,182.00 592.74,180.88 593.82,179.50 C594.90,178.12 596.26,177.00 596.84,177.00 C597.43,177.00 598.26,176.44 598.70,175.75 C599.14,175.06 601.21,173.63 603.31,172.56 C605.40,171.50 608.24,169.58 609.61,168.31 C610.98,167.04 612.73,166.00 613.50,166.00 C614.27,166.00 615.26,165.38 615.70,164.63 C616.75,162.83 626.82,157.77 627.96,158.47 C628.44,158.77 629.55,158.31 630.41,157.45 C631.28,156.58 632.44,156.15 632.99,156.50 C633.55,156.84 634.00,156.62 634.00,156.02 C634.00,155.41 634.56,155.02 635.25,155.14 C637.26,155.52 643.00,153.92 643.00,152.98 C643.00,152.51 643.79,152.17 644.75,152.23 C645.71,152.29 650.78,151.59 656.00,150.69 C665.32,149.07 691.00,147.91 691.00,149.11 C691.00,149.66 700.28,151.09 705.75,151.38 C706.99,151.45 708.00,151.87 708.00,152.32 C708.00,152.77 708.90,152.85 710.00,152.50 C711.10,152.15 712.00,152.27 712.00,152.77 C712.00,153.55 721.54,156.98 724.50,157.26 C725.05,157.31 726.09,157.95 726.82,158.68 C728.01,159.87 730.19,160.44 732.25,160.12 C732.66,160.05 733.00,160.48 733.00,161.06 C733.00,161.64 733.41,161.86 733.91,161.55 C734.42,161.24 734.98,161.41 735.16,161.92 C735.35,162.43 736.16,163.00 736.96,163.18 C737.76,163.35 739.30,164.27 740.36,165.22 C741.43,166.16 742.69,166.69 743.16,166.40 C743.63,166.11 744.28,166.57 744.61,167.43 C744.94,168.29 745.57,168.77 746.00,168.50 C746.43,168.23 747.06,168.71 747.39,169.57 C747.72,170.43 748.39,170.88 748.89,170.57 C749.38,170.26 750.06,170.71 750.39,171.57 C750.72,172.43 751.42,172.86 751.94,172.54 C752.47,172.21 753.39,172.87 754.00,174.00 C754.61,175.13 755.46,175.84 755.89,175.57 C756.33,175.30 757.67,176.41 758.87,178.04 C760.07,179.67 761.66,181.00 762.39,181.00 C763.73,181.00 770.34,187.79 775.00,193.96 C776.38,195.78 778.29,197.99 779.25,198.86 C780.21,199.73 781.00,201.02 781.00,201.72 C781.00,202.43 781.36,203.00 781.80,203.00 C783.39,203.00 792.66,219.62 796.04,228.50 C796.45,229.60 797.52,232.14 798.40,234.15 C799.28,236.16 800.00,238.72 800.00,239.84 C800.00,240.96 800.42,242.14 800.94,242.46 C801.46,242.78 802.19,245.17 802.56,247.77 C802.93,250.37 804.16,254.17 805.28,256.21 C807.01,259.34 807.99,260.03 811.57,260.56 C813.91,260.91 817.21,260.89 818.91,260.52 C820.87,260.09 822.00,260.23 822.00,260.92 C822.00,261.51 823.46,262.03 825.25,262.06 C827.04,262.09 831.65,263.01 835.50,264.11 C839.35,265.21 843.29,266.18 844.25,266.27 C845.21,266.36 846.00,266.75 846.00,267.15 C846.00,267.54 847.01,268.19 848.25,268.58 C849.49,268.97 852.19,270.36 854.25,271.66 C856.31,272.96 858.01,273.68 858.03,273.26 C858.05,272.84 858.52,273.29 859.08,274.25 C859.64,275.21 860.52,276.00 861.03,276.00 C862.22,276.00 875.61,289.55 876.37,291.52 C876.68,292.33 877.40,293.00 877.97,293.00 C878.54,293.00 879.00,293.59 879.00,294.31 C879.00,295.03 879.92,296.61 881.05,297.83 C883.25,300.19 887.97,309.67 887.99,311.76 C888.00,312.46 888.44,313.81 888.97,314.76 C890.64,317.74 894.00,336.12 894.00,342.28 C894.00,346.16 894.51,348.65 895.50,349.64 C896.33,350.47 897.01,350.77 897.02,350.32 C897.02,349.87 897.43,350.12 897.91,350.89 C898.39,351.65 900.19,352.33 901.89,352.39 C903.60,352.45 905.00,352.89 905.00,353.36 C905.00,353.83 905.65,353.97 906.44,353.66 C907.22,353.36 908.02,353.56 908.20,354.10 C908.38,354.64 909.54,355.16 910.76,355.26 C911.99,355.35 913.00,355.69 913.00,356.02 C913.00,356.60 919.52,359.74 921.50,360.11 C922.05,360.22 923.05,361.02 923.72,361.90 C924.39,362.78 924.95,363.09 924.97,362.60 C924.99,362.10 925.90,362.73 927.00,364.00 C928.10,365.27 929.00,366.05 929.00,365.75 C929.00,365.44 931.92,368.11 935.50,371.69 C939.08,375.26 942.00,378.55 942.00,378.99 C942.00,379.43 942.67,380.05 943.50,380.36 C944.33,380.68 945.00,381.59 945.00,382.39 C945.00,383.18 945.35,383.98 945.77,384.17 C947.26,384.81 953.84,398.55 955.51,404.50 C960.16,421.11 959.80,444.95 954.70,457.00 C954.36,457.83 953.43,460.42 952.65,462.77 C950.18,470.17 944.78,478.00 936.04,486.90 C931.39,491.63 926.84,495.95 925.93,496.50 C925.02,497.05 922.30,498.57 919.89,499.88 C917.47,501.20 915.28,502.61 915.00,503.02 C914.46,503.84 902.97,507.86 893.85,510.41 C888.93,511.79 879.23,512.00 819.85,511.98 C777.45,511.98 750.93,511.60 750.00,511.00 C749.17,510.47 748.94,510.02 749.47,510.02 C750.01,510.01 747.54,507.08 744.00,503.50 C740.46,499.92 737.03,497.00 736.39,497.00 C735.74,497.00 734.95,496.33 734.64,495.50 C734.32,494.67 733.37,494.00 732.53,494.00 C731.69,494.00 731.00,493.55 731.00,493.00 C731.00,492.45 730.36,492.00 729.58,492.00 C728.80,492.00 728.02,491.55 727.83,491.00 C727.31,489.45 717.07,486.01 711.00,485.36 C701.07,484.29 695.29,489.70 694.26,501.02 C693.93,504.70 694.15,506.97 694.87,507.42 C695.49,507.80 696.00,508.99 696.00,510.06 C696.00,511.94 695.05,512.00 667.25,511.97 L 638.50 511.94 ZM 783.00 465.64 C783.00,465.17 783.67,465.05 784.50,465.36 C785.33,465.68 786.00,465.50 786.00,464.97 C786.00,464.44 786.71,464.00 787.58,464.00 C788.45,464.00 791.18,461.98 793.66,459.50 C796.13,457.02 797.87,455.00 797.51,455.00 C797.15,455.00 797.56,454.29 798.43,453.43 C798.71,453.15 798.95,452.99 799.15,452.80 C800.19,451.79 800.18,449.70 800.05,422.49 L 800.05 422.49 C800.04,419.55 800.02,416.31 800.01,412.75 L 799.85 377.00 L 815.18 376.99 C830.55,376.99 837.27,376.03 838.72,373.64 C839.15,372.93 840.32,372.05 841.31,371.68 C842.31,371.31 842.88,370.61 842.57,370.11 C842.26,369.62 842.71,368.94 843.57,368.61 C844.43,368.28 844.87,367.60 844.56,367.09 C844.24,366.59 844.50,366.00 845.12,365.79 C846.72,365.26 847.62,355.00 846.07,355.00 C845.42,355.00 845.20,354.48 845.59,353.85 C845.99,353.21 845.48,352.09 844.46,351.35 C843.45,350.61 843.03,350.00 843.53,350.00 C844.03,350.00 843.44,349.29 842.21,348.43 C840.97,347.57 840.20,346.48 840.49,346.02 C840.78,345.55 837.88,342.35 834.06,338.91 C830.23,335.47 827.30,332.33 827.54,331.94 C827.78,331.55 824.49,327.92 820.24,323.88 C815.98,319.83 812.61,316.20 812.73,315.81 C812.86,315.42 809.62,312.07 805.54,308.37 C801.45,304.67 798.31,301.30 798.56,300.90 C798.82,300.49 795.45,296.88 791.07,292.88 C786.70,288.88 783.32,285.29 783.56,284.90 C783.80,284.51 781.41,281.83 778.25,278.93 C775.09,276.03 772.60,273.32 772.73,272.90 C772.85,272.48 769.70,269.13 765.73,265.45 C761.75,261.77 758.50,258.37 758.50,257.89 C758.50,256.48 739.98,239.00 738.48,239.00 C737.73,239.00 736.84,238.55 736.50,238.00 C735.73,236.75 728.54,236.70 724.29,237.92 C720.82,238.91 719.19,240.04 715.15,244.26 C706.61,253.15 698.43,261.79 690.50,270.31 C685.55,275.62 677.56,284.01 672.75,288.94 C667.94,293.87 664.00,298.19 664.00,298.54 C664.00,298.89 661.64,301.56 658.75,304.47 C655.86,307.39 650.35,313.14 646.50,317.27 C642.65,321.39 635.45,328.98 630.49,334.13 C619.65,345.41 618.01,347.42 615.75,352.30 C612.50,359.29 613.65,364.58 619.80,370.92 C624.79,376.05 628.68,376.94 646.25,376.98 L 660.00 377.00 L 660.00 411.56 C660.00,440.24 660.27,446.94 661.57,450.92 C663.27,456.14 668.61,463.36 670.08,462.45 C670.59,462.14 671.00,462.39 671.00,463.00 C671.00,463.61 671.45,463.84 672.00,463.50 C672.55,463.16 673.00,463.39 673.00,464.00 C673.00,464.61 673.45,464.84 674.00,464.50 C674.55,464.16 675.00,464.33 675.00,464.87 C675.00,465.41 675.76,466.00 676.68,466.18 C680.63,466.93 783.00,466.42 783.00,465.64 ZM 685.65 441.17 C684.18,439.54 684.00,435.32 684.00,401.67 C684.00,375.82 683.67,364.00 682.94,364.00 C682.36,364.00 682.17,363.53 682.53,362.96 C683.63,361.17 680.30,357.32 675.74,355.11 C672.02,353.32 669.54,353.00 659.18,353.00 C652.48,353.00 647.00,352.63 647.00,352.19 C647.00,351.74 648.33,350.10 649.95,348.55 C651.58,346.99 652.81,345.38 652.70,344.96 C652.59,344.55 656.21,340.75 660.75,336.51 C665.29,332.28 668.80,328.48 668.54,328.07 C668.29,327.66 672.32,323.38 677.51,318.57 C682.70,313.75 686.84,309.45 686.72,309.01 C686.60,308.57 690.21,304.75 694.75,300.51 C699.29,296.28 702.80,292.49 702.56,292.09 C702.31,291.69 705.45,288.33 709.54,284.63 C713.62,280.93 716.86,277.53 716.73,277.08 C716.42,275.99 728.75,265.00 730.29,265.00 C731.85,265.00 744.34,277.64 760.00,295.07 C763.58,299.04 769.42,305.39 773.00,309.16 C776.58,312.94 781.81,318.61 784.63,321.76 C787.45,324.92 793.40,331.33 797.84,336.00 C802.29,340.67 807.80,346.64 810.09,349.25 L 814.25 354.00 L 801.25 354.00 C785.77,354.00 782.37,355.04 779.47,360.67 C777.63,364.25 777.48,366.97 777.19,401.98 C776.93,434.64 776.68,439.70 775.29,441.23 C773.81,442.87 770.51,443.00 730.50,443.00 C689.93,443.00 687.21,442.89 685.65,441.17 ZM 393.00 499.00 C388.10,500.73 383.80,501.36 375.50,501.59 C360.20,502.02 353.16,500.26 336.74,491.92 C327.17,487.06 319.44,484.13 306.52,480.47 C297.89,478.03 287.09,473.86 276.63,468.92 L 273.76 467.57 L 274.44 460.09 C274.81,455.98 275.34,452.26 275.61,451.83 C275.87,451.40 280.46,453.24 285.80,455.93 C299.41,462.80 320.10,469.00 329.41,469.00 C331.56,469.00 333.79,470.40 337.96,474.38 C350.24,486.09 367.62,490.48 386.13,486.56 C395.20,484.64 402.33,480.80 408.73,474.40 C413.30,469.83 414.70,469.00 417.82,468.99 C422.15,468.98 438.14,465.04 446.57,461.90 C453.19,459.43 467.91,451.50 474.84,446.67 C480.09,443.00 492.97,430.54 498.27,424.00 L 501.91 419.50 L 507.40 424.91 C512.66,430.09 512.83,430.43 511.53,432.91 C510.20,435.45 494.42,451.46 488.50,456.28 C482.77,460.94 468.46,470.23 461.98,473.51 C453.42,477.82 440.74,481.62 429.24,483.32 C421.84,484.40 419.12,485.29 415.74,487.71 C410.27,491.62 401.20,496.12 393.00,499.00 ZM 362.13 466.14 C359.17,465.09 356.47,463.84 356.13,463.36 C355.78,462.89 354.60,461.98 353.50,461.34 C352.40,460.71 351.62,459.68 351.76,459.07 C351.90,458.45 351.34,457.68 350.52,457.37 C349.69,457.05 349.26,456.39 349.56,455.90 C349.87,455.40 349.61,455.00 349.00,455.00 C348.39,455.00 348.16,454.55 348.50,454.00 C348.84,453.45 348.66,453.00 348.09,453.00 C347.53,453.00 347.32,452.33 347.64,451.50 C347.95,450.67 347.69,450.00 347.05,450.00 C346.41,450.00 346.12,449.62 346.41,449.15 C346.70,448.68 346.51,445.64 346.00,442.40 C345.48,439.15 344.93,433.45 344.78,429.73 L 344.50 422.95 L 347.25 423.55 C348.84,423.90 350.00,423.73 350.00,423.15 C350.00,422.59 351.39,422.17 353.10,422.22 C354.80,422.27 356.49,421.89 356.85,421.38 C357.21,420.88 358.83,419.87 360.46,419.16 C364.90,417.20 366.00,419.41 366.00,430.23 C366.00,437.28 366.43,439.93 368.13,443.29 C371.45,449.83 373.56,450.53 377.65,446.44 C379.28,444.82 380.02,443.18 379.70,441.94 C379.42,440.87 379.64,440.00 380.20,440.00 C380.85,440.00 380.96,437.21 380.51,432.08 C380.12,427.72 380.11,422.78 380.48,421.09 C381.15,418.05 381.18,418.04 384.11,419.55 C385.73,420.39 387.50,420.81 388.03,420.48 C388.56,420.15 389.00,420.41 389.00,421.05 C389.00,421.69 389.67,421.95 390.50,421.64 C391.33,421.32 392.00,421.55 392.00,422.14 C392.00,422.73 392.67,422.95 393.50,422.64 C394.33,422.32 395.00,422.52 395.00,423.08 C395.00,423.70 396.40,423.83 398.66,423.40 L 402.31 422.72 L 401.75 436.17 C401.39,444.70 400.63,450.95 399.68,453.23 C397.90,457.48 390.49,465.00 388.08,465.00 C387.16,465.00 385.87,465.53 385.22,466.18 C383.09,468.31 368.16,468.29 362.13,466.14 ZM 475.52 675.28 C473.66,678.78 473.26,679.00 468.77,679.00 L 468.57 679.00 C466.41,679.00 465.13,679.00 464.56,678.37 C463.73,677.45 464.34,675.23 465.82,669.82 L 465.91 669.48 C467.95,662.04 472.84,638.34 475.40,623.50 C476.25,618.55 477.74,610.22 478.70,605.00 L 480.45 595.50 L 481.09 604.00 C481.81,613.47 484.35,626.55 486.40,631.35 C490.17,640.18 494.33,647.91 495.07,647.46 C496.02,646.87 498.00,650.16 498.00,652.34 C498.00,653.15 495.55,655.19 492.56,656.88 C486.96,660.04 479.12,668.51 475.52,675.28 ZM 319.49 632.12 C318.55,636.73 317.67,640.63 317.53,640.78 C317.04,641.31 301.53,630.64 294.39,624.86 C290.48,621.69 284.29,615.87 280.64,611.93 L 274.00 604.76 L 274.12 598.63 C274.19,595.26 274.53,589.36 274.87,585.53 L 275.50 578.56 L 277.42 581.53 C280.57,586.42 293.38,601.18 298.65,606.00 C303.07,610.05 317.06,621.18 320.02,623.01 C320.90,623.55 320.76,625.82 319.49,632.12 ZM 501.86 417.83 L 501.93 417.89 L 498.71 421.63 C486.27,436.12 477.09,444.22 464.98,451.40 C451.84,459.19 437.34,464.55 423.09,466.91 C435.53,464.80 449.04,460.08 460.38,453.81 C475.50,445.46 484.82,437.64 498.18,422.11 ZM 275.68 576.64 C280.68,583.78 286.13,590.53 291.84,596.70 C283.77,588.35 276.95,580.20 275.73,576.77 ZM 390.95 483.86 C383.06,486.50 374.14,487.37 365.83,485.97 C351.72,483.59 345.47,480.53 337.50,472.13 C337.46,472.09 337.42,472.04 337.38,472.00 C337.93,472.50 338.53,473.07 339.22,473.71 C346.15,480.22 353.15,483.57 364.18,485.66 C373.21,487.36 382.67,486.61 390.95,483.86 ZM 329.10 467.66 C328.65,467.60 328.16,467.55 327.62,467.49 C320.47,466.69 311.83,464.58 303.49,461.77 C309.71,463.79 316.26,465.41 323.00,466.56 C325.59,467.00 327.55,467.33 329.10,467.66 ZM 473.81 681.00 L 461.30 681.00 L 473.50 681.00 L 477.50 674.39 C481.49,667.81 486.84,662.29 493.00,658.37 C486.88,662.41 480.56,669.04 477.01,675.33 ZM 274.97 575.83 C274.02,576.51 273.34,585.52 272.40,607.74 C273.43,583.33 274.00,575.80 274.97,575.83 ZM 307.64 611.73 C309.86,613.57 312.09,615.31 314.33,616.94 C316.22,618.31 317.76,619.48 318.98,620.48 C317.91,619.64 316.59,618.68 315.01,617.56 C312.84,616.04 310.32,614.04 307.64,611.73 ZM 279.36 450.73 C276.84,449.31 274.87,448.48 274.66,448.78 L 274.66 448.77 C274.90,448.37 276.78,449.10 278.84,450.40 C279.01,450.51 279.19,450.62 279.36,450.73 ZM 408.20 473.13 L 408.05 473.29 C405.73,475.87 402.83,478.13 399.54,480.03 C402.86,478.11 405.80,475.79 408.20,473.13 ZM 413.42 468.63 C411.75,469.34 410.50,470.57 408.20,473.13 C410.49,470.57 411.74,469.34 413.42,468.63 Z" fill="#e59c2b"/>
<path d="M 352.94 702.89 C350.06,697.51 356.01,681.74 363.29,675.45 C365.61,673.45 370.08,670.51 373.23,668.91 C376.38,667.30 379.67,664.91 380.54,663.58 C383.53,659.01 388.20,602.80 387.93,574.51 L 387.80 560.52 L 384.91 557.76 C381.78,554.77 379.48,554.37 375.60,556.14 C371.24,558.12 370.34,562.69 368.45,592.50 C367.48,607.90 366.58,620.64 366.45,620.81 C365.80,621.68 346.07,611.21 336.50,604.91 C322.92,595.97 302.97,576.48 295.11,564.50 C279.95,541.36 273.31,519.31 272.30,488.74 C271.78,473.03 273.05,451.54 274.66,448.78 C274.87,448.48 276.84,449.31 279.36,450.73 C286.48,455.15 294.65,458.88 303.49,461.77 L 303.49 461.77 C311.83,464.58 320.47,466.69 327.62,467.49 C328.16,467.55 328.65,467.60 329.10,467.66 C333.08,468.52 334.49,469.37 337.38,472.00 C337.42,472.04 337.46,472.09 337.50,472.13 C345.47,480.53 351.72,483.59 365.83,485.97 C374.13,487.37 383.06,486.50 390.94,483.87 L 390.95 483.86 C394.00,482.85 396.89,481.56 399.54,480.03 L 399.54 480.03 C402.84,478.13 405.73,475.87 408.05,473.29 L 408.20 473.13 C410.50,470.57 411.75,469.34 413.42,468.63 C414.67,468.09 416.16,467.85 418.52,467.57 C420.02,467.39 421.55,467.17 423.09,466.91 L 423.09 466.91 C437.35,464.55 451.85,459.19 464.98,451.40 C477.09,444.22 486.27,436.12 498.71,421.63 L 501.93 417.89 L 512.68 427.53 C518.63,432.87 531.60,444.01 541.50,452.30 C610.51,510.06 636.87,540.03 649.44,575.00 C662.57,611.50 656.70,652.76 634.18,682.27 C629.37,688.57 628.13,690.99 627.58,695.11 C627.10,698.73 626.16,700.87 624.31,702.59 L 621.71 705.00 L 581.41 705.00 C559.25,705.00 540.91,704.66 540.66,704.25 C540.40,703.84 540.82,699.92 541.58,695.55 C542.80,688.57 542.78,687.32 541.46,685.30 C539.65,682.54 535.95,682.30 533.69,684.79 C531.21,687.53 528.06,695.31 527.36,700.41 L 526.73 705.00 L 519.75 705.00 C512.99,705.00 512.79,704.93 513.40,702.75 C513.74,701.51 514.30,697.12 514.64,692.98 C515.17,686.59 515.00,685.25 513.54,684.03 C509.53,680.71 503.09,688.43 500.80,699.29 L 499.58 705.09 L 494.04 704.79 C488.56,704.50 488.50,704.47 488.18,701.16 C487.81,697.32 491.58,684.00 493.03,684.00 C493.56,684.00 494.00,683.33 494.00,682.50 C494.00,679.79 501.64,673.28 507.64,670.89 C513.05,668.73 514.73,668.57 529.50,668.80 C538.30,668.95 548.20,669.16 551.50,669.28 L 557.50 669.50 L 557.50 666.50 C557.50,663.87 557.01,663.35 553.50,662.30 C536.47,657.18 532.01,655.55 528.53,653.17 C508.65,639.53 507.93,603.19 526.99,575.61 C533.01,566.89 538.44,561.71 548.19,555.35 C559.78,547.78 569.54,544.53 585.46,542.92 C593.34,542.13 594.79,541.68 596.79,539.41 C599.27,536.58 599.06,533.82 596.15,530.79 C593.80,528.35 581.23,526.63 571.76,527.46 C545.60,529.74 521.37,545.01 505.37,569.31 C495.88,583.70 491.75,598.28 491.85,617.00 C491.92,630.09 493.45,637.29 498.27,647.12 L 501.51 653.74 L 496.00 656.60 C495.02,657.11 494.01,657.71 493.00,658.37 C486.84,662.29 481.49,667.81 477.50,674.39 L 473.50 681.00 L 461.30 681.00 L 463.60 673.05 C468.46,656.28 474.78,621.95 480.54,581.00 C484.97,549.56 484.94,547.01 480.09,543.28 C477.65,541.41 471.56,541.72 469.67,543.81 C467.02,546.74 466.32,549.84 460.59,584.00 C453.10,628.70 446.60,658.69 439.81,679.95 C435.92,692.15 433.96,695.95 429.58,699.80 C425.01,703.81 420.09,705.21 412.00,704.82 L 405.50 704.50 L 405.62 701.50 C405.68,699.85 406.08,695.70 406.51,692.27 C407.40,685.07 406.37,683.00 401.89,683.00 C398.11,683.00 394.71,688.12 392.27,697.50 L 390.46 704.50 L 384.85 704.80 C377.92,705.16 377.47,704.36 379.07,694.46 C380.74,684.11 378.16,680.40 372.20,684.57 C369.19,686.68 365.10,694.97 364.34,700.51 L 363.73 705.00 L 358.90 705.00 C355.01,705.00 353.85,704.59 352.94,702.89 ZM 315.13 442.41 C275.54,429.19 253.98,403.50 248.96,363.56 C246.25,342.09 250.47,306.99 260.02,271.42 C261.66,265.32 263.00,258.76 263.00,256.84 C263.00,247.64 249.95,245.33 245.64,253.77 C240.66,263.49 230.77,301.78 226.47,328.00 C225.07,336.52 223.26,345.54 222.45,348.03 C217.95,361.92 205.54,365.71 196.17,356.06 C188.15,347.79 172.93,314.44 165.47,288.75 C161.58,275.38 161.30,271.71 163.58,264.03 C166.00,255.90 172.53,250.11 190.00,240.61 C207.20,231.25 217.63,224.86 228.50,217.03 C240.24,208.57 245.84,206.00 252.50,206.00 C258.61,206.00 263.65,207.73 268.65,211.55 C274.61,216.09 276.84,215.87 287.73,209.66 C305.18,199.71 320.31,193.89 339.25,189.85 C353.12,186.90 387.59,186.63 401.50,189.37 C416.66,192.36 434.26,198.68 450.80,207.09 C459.37,211.44 467.19,215.00 468.20,215.00 C469.20,215.00 473.73,213.02 478.26,210.59 C492.32,203.07 497.73,203.57 512.82,213.83 C524.21,221.56 534.37,227.56 550.00,235.78 C569.88,246.23 577.13,251.72 581.33,259.50 C584.83,266.00 584.24,276.74 579.62,290.44 C571.43,314.71 556.88,345.45 549.72,353.58 C547.55,356.05 544.49,358.73 542.94,359.53 C538.74,361.71 532.85,361.37 528.99,358.75 C522.76,354.51 522.02,352.59 518.89,332.46 C512.83,293.59 502.99,256.16 497.46,250.97 C492.03,245.86 482.00,249.55 482.00,256.66 C482.00,258.06 483.79,265.80 485.97,273.85 C491.02,292.47 494.44,309.87 496.43,327.00 C500.40,361.20 495.99,385.37 481.99,406.00 C477.78,412.21 465.72,424.03 458.61,428.92 C447.25,436.74 421.71,446.76 420.04,444.06 C419.67,443.47 419.95,439.73 420.65,435.75 C421.35,431.76 421.94,427.15 421.96,425.50 C422.00,422.88 422.73,422.12 427.71,419.52 C440.13,413.03 450.00,398.98 450.00,387.79 C450.00,382.82 449.61,381.51 447.45,379.36 C445.46,377.37 444.31,376.96 442.21,377.48 C438.22,378.48 437.24,379.63 434.92,385.99 C432.20,393.45 428.50,397.85 421.86,401.53 C417.09,404.17 415.57,404.50 408.00,404.49 C401.23,404.48 398.69,404.04 395.50,402.33 C387.89,398.24 383.90,392.28 382.50,382.88 L 381.81 378.26 L 385.16 377.63 C389.82,376.75 399.86,371.85 403.79,368.53 C407.88,365.08 410.85,359.41 411.65,353.50 C412.95,344.07 406.72,335.41 395.38,330.90 C390.12,328.81 387.87,328.56 374.00,328.53 C361.30,328.51 357.43,328.85 352.58,330.44 C341.31,334.13 333.99,342.42 334.01,351.46 C334.02,356.82 337.83,364.77 342.24,368.64 C346.16,372.08 354.71,376.39 359.75,377.47 C362.86,378.13 363.00,378.36 362.98,382.83 C362.91,396.39 351.24,405.79 335.69,404.79 C322.92,403.97 314.64,397.79 310.35,385.86 C307.32,377.42 302.09,374.82 297.45,379.45 C293.74,383.17 294.08,389.64 298.46,398.78 C302.85,407.93 309.02,414.55 317.31,418.98 L 323.82 422.45 L 324.43 428.98 C324.77,432.56 325.30,437.64 325.62,440.25 C326.30,445.97 325.98,446.04 315.13,442.41 ZM 222.25 704.36 C220.37,703.57 220.73,695.74 222.89,690.04 C228.05,676.46 240.16,668.43 258.43,666.47 C263.54,665.92 265.93,665.16 267.53,663.56 C270.04,661.05 270.28,658.40 272.40,607.74 C273.34,585.52 274.02,576.51 274.97,575.83 C275.07,575.83 275.18,575.92 275.29,576.08 C275.42,576.27 275.55,576.46 275.68,576.64 C276.95,580.20 283.77,588.35 291.84,596.70 C296.94,602.22 302.25,607.27 307.64,611.73 C310.32,614.04 312.84,616.04 315.01,617.56 C316.59,618.68 317.91,619.64 318.98,620.48 C321.69,622.72 322.81,624.11 322.59,624.88 C322.34,625.77 321.17,631.45 320.00,637.50 C316.73,654.38 309.21,682.86 306.40,689.00 C301.28,700.20 295.01,704.16 281.39,704.80 L 272.28 705.23 L 273.08 700.36 C274.28,693.06 274.15,685.55 272.80,684.20 C272.14,683.54 270.63,683.00 269.45,683.00 C265.65,683.00 262.56,687.90 260.02,698.00 L 258.38 704.50 L 252.77 704.80 C246.26,705.14 245.45,704.11 247.01,697.50 C249.90,685.28 246.07,679.04 239.81,685.75 C236.23,689.59 234.77,692.64 233.47,699.00 L 232.35 704.50 L 227.93 704.69 C225.49,704.80 222.94,704.65 222.25,704.36 ZM 663.42 677.75 C666.01,673.79 672.69,655.80 675.10,646.33 C677.26,637.84 677.67,637.05 680.77,635.57 C688.65,631.82 701.31,620.45 709.28,609.97 C722.12,593.11 729.10,569.15 727.63,547.00 C726.99,537.34 724.22,523.85 721.58,517.53 C719.15,511.72 721.46,512.62 728.48,520.20 C752.07,545.68 757.15,581.26 742.27,616.68 C731.23,642.94 702.44,668.13 672.70,677.53 C662.62,680.72 661.47,680.75 663.42,677.75 ZM 393.00 499.00 C401.20,496.12 410.27,491.62 415.74,487.71 C419.12,485.29 421.84,484.40 429.24,483.32 C440.74,481.62 453.42,477.82 461.98,473.51 C468.46,470.23 482.77,460.94 488.50,456.28 C494.42,451.46 510.20,435.45 511.53,432.91 C512.83,430.43 512.66,430.09 507.40,424.91 L 501.91 419.50 L 498.27 424.00 C492.97,430.54 480.09,443.00 474.84,446.67 C467.91,451.50 453.19,459.43 446.57,461.90 C438.14,465.04 422.15,468.98 417.82,468.99 C414.70,469.00 413.30,469.83 408.73,474.40 C402.33,480.80 395.20,484.64 386.13,486.56 C367.62,490.48 350.24,486.09 337.96,474.38 C333.79,470.40 331.56,469.00 329.41,469.00 C320.10,469.00 299.41,462.80 285.80,455.93 C280.46,453.24 275.87,451.40 275.61,451.83 C275.34,452.26 274.81,455.98 274.44,460.09 L 273.76 467.57 L 276.63 468.92 C287.09,473.86 297.89,478.03 306.52,480.47 C319.44,484.13 327.17,487.06 336.74,491.92 C353.16,500.26 360.20,502.02 375.50,501.59 C383.80,501.36 388.10,500.73 393.00,499.00 ZM 319.57 325.62 C325.78,322.73 329.96,317.84 332.43,310.58 C334.21,305.35 334.22,304.82 332.61,299.72 C329.28,289.11 321.07,282.61 311.00,282.61 C286.56,282.61 280.62,318.32 303.68,326.55 C309.28,328.55 313.86,328.28 319.57,325.62 ZM 439.98 327.01 C441.88,326.46 445.50,324.61 448.01,322.89 C456.12,317.36 459.19,305.42 454.92,296.00 C450.92,287.19 444.11,282.61 435.00,282.61 C416.36,282.61 405.92,305.59 418.20,319.58 C424.14,326.34 432.43,329.17 439.98,327.01 ZM 475.52 675.28 C479.12,668.51 486.96,660.04 492.56,656.88 C495.55,655.19 498.00,653.15 498.00,652.34 C498.00,650.16 496.02,646.87 495.07,647.46 C494.33,647.91 490.17,640.18 486.40,631.35 C484.35,626.55 481.81,613.47 481.09,604.00 L 480.45 595.50 L 478.70 605.00 C477.74,610.22 476.25,618.55 475.40,623.50 C472.84,638.34 467.95,662.04 465.91,669.48 L 465.82 669.82 C464.34,675.23 463.73,677.45 464.56,678.37 C465.13,679.00 466.41,679.00 468.57,679.00 L 468.77 679.00 C473.26,679.00 473.66,678.78 475.52,675.28 ZM 319.49 632.12 C320.76,625.82 320.90,623.55 320.02,623.01 C317.06,621.18 303.07,610.05 298.65,606.00 C293.38,601.18 280.57,586.42 277.42,581.53 L 275.50 578.56 L 274.87 585.53 C274.53,589.36 274.19,595.26 274.12,598.63 L 274.00 604.76 L 280.64 611.93 C284.29,615.87 290.48,621.69 294.39,624.86 C301.53,630.64 317.04,641.31 317.53,640.78 C317.67,640.63 318.55,636.73 319.49,632.12 Z" fill="rgb(247,185,68)"/>
<path d="M 0.00 512.00 L 0.00 0.00 L 512.00 0.00 L 1024.00 0.00 L 1024.00 512.00 L 1024.00 1024.00 L 512.00 1024.00 L 0.00 1024.00 L 0.00 512.00 ZM 293.20 725.89 C310.55,722.26 322.66,708.44 330.80,682.97 C334.19,672.37 340.22,649.62 342.00,640.71 C343.28,634.29 343.44,634.24 351.00,637.99 C352.92,638.95 356.24,640.29 358.38,640.98 L 362.26 642.24 L 361.69 647.87 C361.22,652.58 360.66,653.82 358.31,655.47 C356.77,656.55 352.12,660.85 348.00,665.01 C336.51,676.60 331.25,689.24 332.22,702.86 C333.00,713.73 337.12,719.87 346.51,724.20 L 351.50 726.50 L 487.00 726.77 C619.62,727.04 622.64,727.00 629.00,725.06 C636.75,722.70 642.21,717.92 645.63,710.48 L 647.94 705.46 L 657.72 703.78 C698.32,696.81 732.77,674.69 753.93,642.00 C772.93,612.64 778.11,575.47 767.83,542.20 C766.70,538.51 765.93,535.39 766.13,535.26 C766.33,535.12 794.40,534.86 828.50,534.67 C894.90,534.30 895.52,534.26 911.97,528.88 C944.05,518.40 969.53,489.95 978.50,454.60 C987.52,419.05 977.00,380.83 951.33,355.89 C941.94,346.76 933.23,340.95 923.37,337.25 L 916.06 334.50 L 915.44 330.00 C910.50,294.36 889.99,264.40 860.50,249.76 C851.25,245.16 845.40,243.32 833.46,241.23 L 823.54 239.50 L 819.94 229.00 C817.97,223.23 814.02,214.00 811.17,208.50 C772.98,134.81 683.73,105.44 610.26,142.38 C595.70,149.71 583.77,158.36 570.17,171.49 C559.57,181.71 545.89,197.53 543.12,202.75 C542.47,203.99 541.49,205.00 540.96,205.00 C540.42,205.00 535.56,202.12 530.14,198.59 C511.12,186.21 503.92,183.59 490.53,184.18 C482.65,184.52 480.32,185.05 474.96,187.70 L 468.67 190.82 L 459.34 186.02 C418.00,164.71 372.21,158.88 330.00,169.53 C312.04,174.07 297.36,179.78 284.77,187.13 L 277.99 191.10 L 269.12 187.55 C261.54,184.52 259.08,184.00 252.24,184.00 C239.10,184.00 234.01,186.31 207.76,204.15 C201.57,208.36 189.30,215.72 180.50,220.51 C171.70,225.30 162.38,230.77 159.78,232.67 C144.60,243.79 137.30,260.96 139.98,279.29 C142.94,299.58 164.08,351.38 175.76,367.00 C185.02,379.38 198.49,385.52 211.48,383.30 C216.47,382.44 223.06,380.05 228.12,377.26 C228.45,377.08 229.01,378.67 229.35,380.81 C231.62,394.99 241.95,416.29 251.88,427.29 L 255.37 431.15 L 254.20 436.83 C249.24,460.81 247.97,484.94 250.49,507.00 C251.98,520.06 252.15,527.22 251.59,552.50 C250.83,587.17 249.32,629.09 248.43,640.11 L 247.82 647.72 L 241.83 649.39 C234.09,651.54 225.69,655.81 219.39,660.78 C213.31,665.59 205.78,676.38 202.83,684.50 C200.26,691.59 199.78,704.40 201.87,710.34 C204.56,718.02 212.20,724.15 221.34,725.96 C227.80,727.24 287.04,727.18 293.20,725.89 ZM 678.13 599.25 C675.87,578.87 668.27,557.31 657.31,540.14 C655.43,537.19 654.02,534.72 654.19,534.64 C654.36,534.56 665.61,534.63 679.20,534.80 L 703.89 535.10 L 704.69 539.80 C706.03,547.66 705.49,562.02 703.56,570.00 C701.44,578.75 696.59,589.83 691.88,596.67 C688.18,602.07 681.13,610.00 680.04,610.00 C679.65,610.00 678.79,605.16 678.13,599.25 ZM 311.85 305.87 C310.37,305.33 308.65,303.57 307.95,301.89 C306.86,299.25 306.95,298.54 308.70,296.19 C312.72,290.78 321.00,292.97 321.00,299.45 C321.00,301.94 320.29,303.41 318.37,304.93 C315.43,307.24 315.53,307.22 311.85,305.87 ZM 433.07 303.37 C431.93,301.92 431.00,300.18 431.00,299.50 C431.00,298.82 431.93,297.08 433.07,295.63 C438.56,288.66 448.55,296.49 443.44,303.78 C441.17,307.03 435.79,306.82 433.07,303.37 Z" fill="rgb(254,254,254)"/>
</g>
</svg>